PathFileType	4	(X/Y/Z)	./resultDataOpenSim/trcMotMarkerGrf/sub10/qtm-14-01.trc
DataRate	CameraRate	NumFrames	NumMarkers	Units	OrigDataRate	OrigDataStartFrame	OrigNumFrames
250.000000	250.000000	7	24	m	250.000000	1	454
Frame#	Time	L.Toe.Tip			R.Toe.Tip			L.Ankle.Lat			R.Ankle.Lat			L.Ankle.Med			R.Ankle.Med			L.Heel			R.Heel			L.Knee.Lat			R.Knee.Lat			L.Knee.Med			R.Knee.Med			L.Thigh.Upper			R.Thigh.Upper			L.ASIS			R.ASIS			V.Sacral			L.Acromium			R.Acromium			C7			L.Elbow			R.Elbow			L.Wrist.Lat			R.Wrist.Lat
		X1	Y1	Z1	X2	Y2	Z2	X3	Y3	Z3	X4	Y4	Z4	X5	Y5	Z5	X6	Y6	Z6	X7	Y7	Z7	X8	Y8	Z8	X9	Y9	Z9	X10	Y10	Z10	X11	Y11	Z11	X12	Y12	Z12	X13	Y13	Z13	X14	Y14	Z14	X15	Y15	Z15	X16	Y16	Z16	X17	Y17	Z17	X18	Y18	Z18	X19	Y19	Z19	X20	Y20	Z20	X21	Y21	Z21	X22	Y22	Z22	X23	Y23	Z23	X24	Y24	Z24

1	0	-1.5660803	0.037419073	-0.13498986	-0.91765356	0.085786791	0.046328305	-1.700711	0.072662317	-0.16404939	-1.0590984	0.065535538	0.075522234	-1.6817836	0.099013942	-0.083216639	-1.0414703	0.099387082	-0.0040888	NaN	NaN	NaN	-1.0928959	0.028652754	0.023147866	-1.5468744	0.42971021	-0.20664477	-1.1678456	0.45184573	0.089567302	-1.5478517	0.41258028	-0.085939791	-1.1421303	0.45908304	-0.036668304	-1.3997048	0.79732337	-0.27493369	-1.337577	0.82689514	0.1115088	-1.3148739	0.89490509	-0.21608706	-1.2811827	0.91492456	0.027896394	-1.4921662	0.92595281	-0.069091115	-1.2865862	1.3750118	-0.24641329	-1.3464616	1.377849	0.06574457	-1.3906672	1.4100861	-0.10808853	-1.4052002	1.0483512	-0.30366964	-1.5409314	1.0879709	0.10930322	-1.2635851	0.8562712	-0.37675351	-1.4712771	0.86228553	0.1818829
2	0.004	-1.5660549	0.037407027	-0.13500488	-0.90429534	0.089197315	0.044102327	-1.7000153	0.073759215	-0.16383878	-1.0453765	0.06602171	0.075490622	-1.6811856	0.099797575	-0.082867294	-1.02934	0.10017266	-0.0044005713	NaN	NaN	NaN	-1.0789091	0.028464242	0.023632219	-1.5435864	0.42931455	-0.2063367	-1.1608871	0.45053729	0.089806176	-1.5439275	0.4119666	-0.085383006	-1.1357035	0.45775639	-0.036597765	-1.395837	0.79639297	-0.27450434	-1.3308922	0.82522713	0.11215503	-1.3097974	0.8937726	-0.21610422	-1.2748411	0.91357925	0.028060196	-1.4864359	0.92387547	-0.067802997	-1.2802925	1.3732236	-0.24581169	-1.340848	1.3761271	0.066129838	-1.384898	1.4085474	-0.10808348	-1.3982714	1.0466607	-0.30336096	-1.5357995	1.086481	0.10945591	-1.2564343	0.85447707	-0.37626274	-1.4683612	0.86074376	0.18240096
3	0.008	-1.5659222	0.037398435	-0.13504237	-0.8912783	0.092480425	0.041885651	-1.6994533	0.074870294	-0.16358508	-1.0319774	0.06651456	0.075430623	-1.6814547	0.10046111	-0.082241144	-1.0174194	0.10093205	-0.0047099185	NaN	NaN	NaN	-1.0652664	0.028294971	0.02409392	-1.5402698	0.42891074	-0.20604234	-1.1539161	0.44932273	0.090001692	-1.5399396	0.41138058	-0.084812019	-1.1292387	0.45648328	-0.036568753	-1.3917872	0.79550892	-0.27401202	-1.3241705	0.82360254	0.11279793	-1.3048929	0.8926431	-0.21617247	-1.268448	0.91226389	0.02822991	-1.4806602	0.92186569	-0.066486525	-1.2739652	1.3714422	-0.24519703	-1.3352548	1.3744509	0.066543317	-1.3791019	1.4070459	-0.10802829	-1.3913251	1.04501	-0.30305211	-1.5307954	1.0850468	0.1095561	-1.2493374	0.8527007	-0.37580692	-1.4653839	0.85922682	0.18289856
4	0.012	-1.5656381	0.037396514	-0.13511428	-0.87887418	0.095481293	0.039685517	-1.6989918	0.076025817	-0.16328656	-1.0190604	0.067013327	0.075333826	-1.6830801	0.10097922	-0.081219915	-1.0058449	0.1016389	-0.0050274786	NaN	NaN	NaN	-1.0521732	0.028154691	0.024535456	-1.5368084	0.42850747	-0.20571186	-1.1468845	0.44824316	0.09013207	-1.5358074	0.4108116	-0.084231319	-1.1227122	0.45529893	-0.036608733	-1.387483	0.79467921	-0.27343749	-1.3173563	0.82204406	0.11343004	-1.3001685	0.89152256	-0.21630397	-1.2619469	0.91099886	0.028410389	-1.4748041	0.91996763	-0.065147918	-1.2675782	1.3696746	-0.24456348	-1.3296619	1.3728282	0.066994214	-1.3732523	1.4056172	-0.10785776	-1.3843358	1.0434168	-0.30278891	-1.5259839	1.0837281	0.10956321	-1.2423464	0.85094093	-0.37541608	-1.4624454	0.85775483	0.18335251
5	0.016	-1.5652848	0.03739852	-0.13519874	-0.86719689	0.098074066	0.037570558	-1.6985611	0.077240239	-0.16295391	-1.0066758	0.06749865	0.075207188	-1.685168	0.10152866	-0.08009508	-0.99469692	0.10226773	-0.0053669555	NaN	NaN	NaN	-1.0397212	0.028042787	0.024957869	-1.5330085	0.42813948	-0.2052411	-1.1396765	0.4473079	0.090219786	-1.5314989	0.41022327	-0.083661559	-1.1161345	0.45422084	-0.036725074	-1.382951	0.79388407	-0.27279891	-1.3104046	0.82056865	0.11403965	-1.2954408	0.89042704	-0.21646578	-1.2553262	0.90979805	0.028590969	-1.4688702	0.91819559	-0.063824608	-1.2611331	1.3679439	-0.24391684	-1.3240302	1.3712445	0.067467561	-1.3673578	1.4042858	-0.10756277	-1.377303	1.0418893	-0.30258684	-1.5212957	1.0825775	0.10950933	-1.2354816	0.84919812	-0.37509234	-1.4597134	0.85632839	0.18374346
6	0.02	-1.5651165	0.037389309	-0.13522131	-0.85618276	0.10021495	0.035656789	-1.6981426	0.078524988	-0.1626059	-0.99484174	0.067934429	0.075056487	-1.6859773	0.10236633	-0.079376185	-0.98401806	0.10279155	-0.0057333504	NaN	NaN	NaN	-1.0279347	0.027943146	0.025337717	-1.5287432	0.42784825	-0.20457261	-1.1319938	0.44655648	0.090355462	-1.5270558	0.40959662	-0.083109438	-1.1095212	0.45325648	-0.036912843	-1.3782327	0.7931049	-0.27212261	-1.3033007	0.81919414	0.11461256	-1.2904848	0.88937479	-0.21661645	-1.2486085	0.90867318	0.028752157	-1.4628683	0.91654632	-0.0625387	-1.254643	1.3662814	-0.24326273	-1.3183135	1.3696958	0.067941376	-1.3614434	1.4030457	-0.10720825	-1.3702458	1.0404367	-0.30240554	-1.5165302	1.0816123	0.1095088	-1.2286512	0.84749101	-0.37476489	-1.4571322	0.8549289	0.18408114
7	0.024	-1.5653764	0.037354053	-0.135112	-0.84573082	0.10192057	0.033993818	-1.6977125	0.079904215	-0.16227862	-0.98358723	0.068285765	0.074871245	-1.684875	0.10355685	-0.07923446	-0.97384237	0.10317653	-0.0061317761	NaN	NaN	NaN	-1.0168205	0.027824852	0.025641142	-1.524155	0.4276268	-0.20380186	-1.1235732	0.44602777	0.090622099	-1.5225382	0.40893924	-0.082566052	-1.1028813	0.45240684	-0.037162888	-1.3733494	0.79234466	-0.2714372	-1.2960692	0.81792881	0.11514013	-1.2852169	0.88837255	-0.2167418	-1.2418117	0.90763636	0.028884627	-1.4567855	0.91501843	-0.061281742	-1.2481266	1.3647069	-0.24260116	-1.3124841	1.3681961	0.068411171	-1.3555308	1.4018762	-0.10687884	-1.3631874	1.0390704	-0.30220813	-1.5115006	1.0808023	0.10965632	-1.2216457	0.84585531	-0.37427101	-1.4544116	0.85355174	0.18441065
